<svg height="750" width="720" xmlns="http://www.w3.org/2000/svg">
<rect height="750" fill="#555" width="720"></rect>
<text fill="#7f7" font-family="Courier New" font-size="12" xml:space="preserve">
<tspan x="10" y="26">12 megabytes</tspan>
<tspan x="10" y="42">└─┬ sql-cli@0.4.14 </tspan>
<tspan x="10" y="58">  ├── chardet@0.1.0 </tspan>
<tspan x="10" y="74">  ├─┬ commander@2.9.0 </tspan>
<tspan x="10" y="90">  │ └── graceful-readlink@1.0.1 </tspan>
<tspan x="10" y="106">  ├─┬ easy-table@1.1.0 </tspan>
<tspan x="10" y="122">  │ └─┬ wcwidth@1.0.1 </tspan>
<tspan x="10" y="138">  │   └─┬ defaults@1.0.3 </tspan>
<tspan x="10" y="154">  │     └── clone@1.0.2 </tspan>
<tspan x="10" y="170">  ├── iconv-lite@0.4.15 </tspan>
<tspan x="10" y="186">  ├─┬ mssql@3.3.0 </tspan>
<tspan x="10" y="202">  │ ├── generic-pool@2.5.4 </tspan>
<tspan x="10" y="218">  │ ├── promise@7.1.1 </tspan>
<tspan x="10" y="234">  │ └─┬ tedious@1.14.0 </tspan>
<tspan x="10" y="250">  │   ├─┬ babel-runtime@5.8.38 </tspan>
<tspan x="10" y="266">  │   │ └── core-js@1.2.7 </tspan>
<tspan x="10" y="282">  │   ├── big-number@0.3.1 </tspan>
<tspan x="10" y="298">  │   ├── bl@1.2.0 </tspan>
<tspan x="10" y="314">  │   ├─┬ readable-stream@2.2.7 </tspan>
<tspan x="10" y="330">  │   │ ├── buffer-shims@1.0.0 </tspan>
<tspan x="10" y="346">  │   │ ├── core-util-is@1.0.2 </tspan>
<tspan x="10" y="362">  │   │ ├── inherits@2.0.3 </tspan>
<tspan x="10" y="378">  │   │ ├── isarray@1.0.0 </tspan>
<tspan x="10" y="394">  │   │ ├── process-nextick-args@1.0.7 </tspan>
<tspan x="10" y="410">  │   │ └── string_decoder@1.0.0 </tspan>
<tspan x="10" y="426">  │   ├── semver@5.3.0 </tspan>
<tspan x="10" y="442">  │   └── sprintf@0.1.5 </tspan>
<tspan x="10" y="458">  ├── mstring@0.1.2 </tspan>
<tspan x="10" y="474">  ├─┬ password-prompt@1.0.2 </tspan>
<tspan x="10" y="490">  │ ├── ansi-escapes@1.4.0 </tspan>
<tspan x="10" y="506">  │ └─┬ cross-spawn@4.0.0 </tspan>
<tspan x="10" y="522">  │   ├─┬ lru-cache@4.0.2 </tspan>
<tspan x="10" y="538">  │   │ ├── pseudomap@1.0.2 </tspan>
<tspan x="10" y="554">  │   │ └── yallist@2.1.2 </tspan>
<tspan x="10" y="570">  │   └─┬ which@1.2.14 </tspan>
<tspan x="10" y="586">  │     └── isexe@2.0.0 </tspan>
<tspan x="10" y="602">  ├─┬ q@2.0.3 </tspan>
<tspan x="10" y="618">  │ ├── asap@2.0.5 </tspan>
<tspan x="10" y="634">  │ ├── pop-iterate@1.0.1 </tspan>
<tspan x="10" y="650">  │ └── weak-map@1.0.5 </tspan>
<tspan x="10" y="666">  ├── sprintf-js@1.0.3 </tspan>
<tspan x="10" y="682">  ├── underscore@1.8.3 </tspan>
<tspan x="10" y="698">  ├─┬ underscore.string@3.3.4 </tspan>
<tspan x="10" y="714">  │ └── util-deprecate@1.0.2 </tspan>
<tspan x="10" y="730">  └── ya-csv@0.9.4</tspan>
</text>
</svg>
